<svg xmlns="http://www.w3.org/2000/svg" width="202" height="60" viewBox="0 0 202 60" fill="none"><rect width="202" height="60" rx="5" fill="#6A146B"></rect><path d="M72.7419 33.7674C72.7419 34.2855 73.2601 34.8037 73.8819 34.8037C74.4 34.8037 74.9182 34.2855 74.9182 33.7674V30.9694H78.5452C79.0633 30.9694 79.4778 30.5549 79.4778 30.0367C79.4778 29.5186 79.0633 29.1041 78.5452 29.1041H74.9182V27.0315H79.1669C79.6851 27.0315 80.0996 26.617 80.0996 26.0988C80.0996 25.5807 79.6851 25.1661 79.1669 25.1661H73.8819C73.2601 25.1661 72.7419 25.6843 72.7419 26.2024V33.7674ZM87.5609 34.8037C90.4625 34.8037 92.6387 32.6274 92.6387 29.9331C92.6387 27.2387 90.4625 25.0625 87.5609 25.0625C84.6593 25.0625 82.4831 27.2387 82.4831 29.9331C82.4831 32.6274 84.5557 34.8037 87.5609 34.8037ZM87.5609 32.9383C85.9028 32.9383 84.6593 31.5911 84.6593 29.9331C84.6593 28.275 85.7992 26.9278 87.5609 26.9278C89.219 26.9278 90.3589 28.275 90.3589 29.9331C90.3589 31.5911 89.219 32.9383 87.5609 32.9383ZM99.5819 34.8037C102.173 34.8037 103.831 33.4565 103.831 30.5549V26.0988C103.831 25.5807 103.313 25.0625 102.691 25.0625C102.173 25.0625 101.654 25.5807 101.654 26.0988V30.6585C101.654 32.1093 100.929 32.9383 99.6855 32.9383C98.3383 32.9383 97.6129 32.1093 97.6129 30.5549V26.0988C97.6129 25.5807 97.0948 25.0625 96.5766 25.0625C95.9549 25.0625 95.5403 25.5807 95.5403 26.0988V30.6585C95.5403 33.4565 97.0948 34.8037 99.5819 34.8037ZM107.147 33.7674C107.147 34.2855 107.561 34.8037 108.183 34.8037C108.701 34.8037 109.219 34.2855 109.219 33.7674V28.6895L113.365 34.1819C113.675 34.4928 113.986 34.7 114.401 34.7H114.504C115.126 34.7 115.541 34.2855 115.541 33.6637V26.0988C115.541 25.5807 115.126 25.0625 114.504 25.0625C113.986 25.0625 113.468 25.5807 113.468 26.0988V31.073L109.427 25.7879C109.219 25.3734 108.908 25.1661 108.39 25.1661H108.183C107.561 25.1661 107.147 25.5807 107.147 26.2024V33.7674ZM119.064 33.6637C119.064 34.1819 119.479 34.7 120.1 34.7H122.795C125.696 34.7 127.769 32.6274 127.769 29.9331C127.769 27.2387 125.696 25.1661 122.795 25.1661H120.1C119.479 25.1661 119.064 25.6843 119.064 26.2024V33.6637ZM121.137 32.8347V27.0315H122.795C124.453 27.0315 125.593 28.275 125.593 29.9331C125.593 31.6948 124.453 32.8347 122.795 32.8347H121.137ZM129.842 33.7674C129.842 34.3891 130.256 34.8037 130.774 34.8037C131.189 34.8037 131.603 34.4928 131.707 34.0782L132.432 32.5238H136.577L137.199 34.0782C137.407 34.4928 137.717 34.8037 138.236 34.8037C138.754 34.8037 139.272 34.2855 139.272 33.7674C139.272 33.6637 139.168 33.4565 139.065 33.3528L135.748 25.8915C135.541 25.3734 135.127 25.0625 134.609 25.0625H134.505C133.883 25.0625 133.469 25.3734 133.261 25.8915L129.945 33.3528C129.842 33.4565 129.842 33.6637 129.842 33.7674ZM133.158 30.6585L134.505 27.5496L135.852 30.6585H133.158ZM143.21 33.7674C143.21 34.2855 143.728 34.8037 144.35 34.8037C144.868 34.8037 145.386 34.2855 145.386 33.7674V27.1351H147.355C147.873 27.1351 148.288 26.7206 148.288 26.0988C148.288 25.5807 147.873 25.1661 147.355 25.1661H141.241C140.723 25.1661 140.308 25.5807 140.308 26.0988C140.308 26.7206 140.723 27.1351 141.241 27.1351H143.21V33.7674ZM151.189 33.7674C151.189 34.2855 151.604 34.8037 152.225 34.8037C152.744 34.8037 153.262 34.2855 153.262 33.7674V26.0988C153.262 25.5807 152.744 25.0625 152.225 25.0625C151.604 25.0625 151.189 25.5807 151.189 26.0988V33.7674ZM161.448 34.8037C164.35 34.8037 166.526 32.6274 166.526 29.9331C166.526 27.2387 164.35 25.0625 161.448 25.0625C158.547 25.0625 156.371 27.2387 156.371 29.9331C156.371 32.6274 158.443 34.8037 161.448 34.8037ZM161.448 32.9383C159.79 32.9383 158.547 31.5911 158.547 29.9331C158.547 28.275 159.687 26.9278 161.448 26.9278C163.107 26.9278 164.35 28.275 164.35 29.9331C164.35 31.5911 163.107 32.9383 161.448 32.9383ZM169.532 33.7674C169.532 34.2855 170.05 34.8037 170.568 34.8037C171.19 34.8037 171.604 34.2855 171.604 33.7674V28.6895L175.749 34.1819C176.06 34.4928 176.371 34.7 176.889 34.7H176.993C177.511 34.7 178.029 34.2855 178.029 33.6637V26.0988C178.029 25.5807 177.511 25.0625 176.993 25.0625C176.371 25.0625 175.957 25.5807 175.957 26.0988V31.073L171.915 25.7879C171.604 25.3734 171.293 25.1661 170.775 25.1661H170.568C170.05 25.1661 169.532 25.5807 169.532 26.2024V33.7674Z" fill="#FEFEFE"></path><path fill-rule="evenodd" clip-rule="evenodd" d="M43.8294 9C55.2286 9 64.5553 18.3266 64.5553 29.8294C64.5553 41.3323 55.2286 50.5553 43.8294 50.5553C32.3266 50.5553 23 41.3323 23 29.8294C23 18.3266 32.3266 9 43.8294 9Z" fill="#F37435"></path><path d="M28.0779 36.1508C28.0779 37.0835 28.8033 37.8089 29.7359 37.8089C30.4614 37.8089 30.9795 37.3944 31.2904 36.669L32.4303 34.1819H39.2698L40.3061 36.5653C40.617 37.2907 41.2388 37.8089 41.9642 37.8089C42.8968 37.8089 43.6222 37.0835 43.6222 36.1508C43.6222 35.9436 43.6222 35.6327 43.415 35.4254L38.0263 23.0936C37.6118 22.2645 36.99 21.7464 36.0573 21.7464H35.8501C34.8138 21.7464 34.192 22.2645 33.7775 23.0936L28.2851 35.4254C28.1815 35.6327 28.0779 35.9436 28.0779 36.1508ZM33.6739 31.073L35.8501 25.8915L38.0263 31.073H33.6739ZM52.5343 37.9125C56.7831 37.9125 59.4775 35.5291 59.4775 30.8657V23.6117C59.4775 22.5754 58.6485 21.85 57.7158 21.85C56.7831 21.85 55.9541 22.5754 55.9541 23.6117V30.9694C55.9541 33.4565 54.7106 34.7 52.638 34.7C50.4618 34.7 49.2182 33.3528 49.2182 30.8657V23.6117C49.2182 22.5754 48.4928 21.85 47.4565 21.85C46.5239 21.85 45.7985 22.5754 45.7985 23.6117V30.9694C45.7985 35.5291 48.3892 37.9125 52.5343 37.9125Z" fill="#FEFEFE"></path></svg>