<svg width="140" height="35" viewBox="0 0 140 35" fill="none" xmlns="http://www.w3.org/2000/svg">
<g clip-path="url(#clip0_1256_10)">
<path d="M27.6656 25.9082H23.0621V0.321182H27.6656V25.9082Z" fill="#6D3078"/>
<path d="M55.5008 23.5529C55.5008 23.8741 55.3938 24.1953 55.2867 24.4094C55.1797 24.7306 55.0726 24.9447 54.8585 25.1588C54.6444 25.3729 54.4303 25.587 54.1091 25.6941C53.7879 25.8011 53.4667 25.9082 53.1455 25.9082H36.4444C36.0162 25.9082 35.5879 25.8011 35.1597 25.6941C34.6244 25.587 34.0891 25.48 33.6609 25.2659C33.1256 25.0517 32.6973 24.7306 32.2691 24.4094C31.8409 24.0882 31.4126 23.66 31.0915 23.2317C30.7703 22.6964 30.5562 22.1611 30.3421 21.5188C30.1279 20.8764 30.0209 20.127 30.0209 19.3776V6.85176C30.0209 6.42353 30.0209 5.99529 30.1279 5.46C30.235 4.92471 30.4491 4.49647 30.6632 3.96118C30.8773 3.53294 31.0915 3.10471 31.4126 2.67647C31.8409 2.14118 32.162 1.82 32.6973 1.49883C33.1256 1.17765 33.7679 0.856476 34.4103 0.642358C34.9456 0.428241 35.695 0.321182 36.4444 0.321182H55.2867V5.03176H36.4444C35.9091 5.03176 35.3738 5.13882 35.0526 5.46C34.7315 5.78117 34.6244 6.20941 34.6244 6.85176V19.3776C34.6244 19.9129 34.8385 20.4482 35.1597 20.7694C35.4809 21.0906 35.9091 21.1976 36.4444 21.1976H50.8973V15.4165H38.5856V10.8129H53.1455C53.4667 10.8129 53.7879 10.8129 54.1091 10.92C54.4303 11.1341 54.6444 11.2412 54.8585 11.4553C55.0726 11.6694 55.1797 11.8835 55.2867 12.2047C55.3938 12.5259 55.5008 12.74 55.5008 13.0612V23.5529Z" fill="#6D3078"/>
<path d="M83.122 23.8741C83.122 24.1953 83.0149 24.5164 82.9079 24.8376C82.8008 25.0517 82.5867 25.3729 82.3726 25.587C82.1584 25.8011 81.9443 25.9082 81.6232 26.0153C81.409 26.1223 81.0879 26.2294 80.7667 26.2294C80.4455 26.2294 80.2314 26.1223 79.9102 26.0153C79.589 25.9082 79.3749 25.8011 79.1608 25.587L62.2455 7.92234V25.9082H57.642V2.35529C57.642 1.82 57.7491 1.39176 57.9632 1.07059C58.2844 0.642352 58.6055 0.321176 59.0338 0.214117C59.462 0 59.8902 0 60.3185 0C60.8538 0.107059 61.282 0.321176 61.6032 0.642352L78.4114 18.307V0.321176H83.122V23.8741Z" fill="#6D3078"/>
<path d="M90.402 25.9082H85.7984V0.321182H90.402V25.9082Z" fill="#6D3078"/>
<path d="M116.096 5.03176H105.925V25.9082H101.322V5.03176H91.0443V0.321182H116.096V5.03176Z" fill="#6D3078"/>
<path d="M137.722 15.4165H123.162V10.8129H137.722V15.4165ZM139.863 25.9082H123.162C122.52 25.9082 121.77 25.8011 121.021 25.48C120.271 25.2659 119.629 24.9447 118.987 24.4094C118.344 23.8741 117.702 23.2317 117.274 22.3753C116.845 21.6259 116.631 20.5553 116.631 19.3776V2.67647C116.631 2.3553 116.738 2.03412 116.845 1.82C116.953 1.49883 117.167 1.28471 117.381 1.07059C117.595 0.856476 117.809 0.642358 118.023 0.5353C118.344 0.428241 118.665 0.321182 118.987 0.321182H139.863V5.03176H121.342V19.3776C121.342 20.02 121.449 20.4482 121.77 20.7694C122.091 21.0906 122.52 21.1976 123.162 21.1976H139.863V25.9082Z" fill="#6D3078"/>
<path d="M23.0621 9.74233V13.2753L27.6656 13.8106V9.42116L23.0621 9.74233Z" fill="#F37435"/>
<path d="M30.0209 14.1317V9.20704L34.6244 8.77881V14.56L30.0209 14.1317ZM50.8973 16.38V15.4164H42.2256L38.5856 14.9882V10.8129H53.1455C53.4667 10.8129 53.7879 10.8129 54.1091 10.92C54.4303 11.1341 54.6444 11.2412 54.8585 11.4553C55.0726 11.6694 55.1797 11.8835 55.2867 12.2047C55.5008 12.5259 55.5008 12.74 55.5008 13.0612V16.9153L50.8973 16.38Z" fill="#F37435"/>
<path d="M72.6302 18.8423L62.2455 7.92234V17.6647L57.642 17.1294V6.95882L66.8491 6.2094L78.4114 18.307V5.24588L83.122 4.81764V19.9129L72.6302 18.8423Z" fill="#F37435"/>
<path d="M85.7984 20.2341V4.60352L90.402 4.28235V20.7694L85.7984 20.2341Z" fill="#F37435"/>
<path d="M116.096 5.03176H105.925V22.4823L101.322 21.947V5.03176H91.0443V4.17529L116.096 2.14117V5.03176Z" fill="#F37435"/>
<path d="M137.722 15.4165H123.162V10.8129H137.722V15.4165ZM118.344 23.8741L136.651 25.9082H139.863V21.1976H123.162C122.52 21.1976 122.091 21.0906 121.77 20.7694C121.449 20.4482 121.342 20.02 121.342 19.3776V5.03176H139.863V0.321182H137.401L116.738 2.03412C116.738 2.24824 116.631 2.46236 116.631 2.67647V19.3776C116.631 20.5553 116.845 21.6259 117.274 22.3753C117.595 22.9106 117.916 23.4459 118.344 23.8741Z" fill="#F37435"/>
<path d="M28.5221 34.0447C28.5221 34.1517 28.5221 34.2588 28.415 34.2588C28.415 34.3658 28.415 34.3658 28.3079 34.4729C28.3079 34.4729 28.2009 34.4729 28.2009 34.58C28.0938 34.58 28.0938 34.58 27.9868 34.58H25.7385C25.5244 34.58 25.3103 34.58 25.0962 34.4729C24.8821 34.4729 24.6679 34.3658 24.4538 34.2588C24.2397 34.1517 24.0256 34.0447 23.9185 33.9376C23.7044 33.8305 23.5974 33.6164 23.3832 33.4023C23.2762 33.1882 23.1691 32.9741 23.0621 32.6529C23.0621 32.4388 22.955 32.1176 22.955 31.7964V29.12H24.0256V31.7964C24.0256 32.1176 24.0256 32.3317 24.1326 32.5458C24.1326 32.76 24.2397 32.867 24.4538 33.0811C24.5609 33.1882 24.6679 33.2953 24.775 33.2953C24.9891 33.4023 25.0962 33.5094 25.2032 33.5094C25.3103 33.5094 25.4174 33.5094 25.5244 33.6164C25.6315 33.6164 25.7385 33.6164 25.7385 33.6164H27.4515V29.12H28.5221V34.0447Z" fill="#6D3078"/>
<path d="M35.5879 34.1517C35.5879 34.2588 35.4809 34.2588 35.4809 34.3658C35.4809 34.3658 35.4809 34.4729 35.3738 34.4729C35.3738 34.5799 35.2667 34.5799 35.2667 34.5799C35.1597 34.687 35.1597 34.687 35.0526 34.687C34.9456 34.687 34.9456 34.687 34.8385 34.5799C34.8385 34.5799 34.7315 34.5799 34.7315 34.4729L31.0915 30.7258V34.5799H30.0209V29.5482C30.0209 29.4411 30.1279 29.3341 30.1279 29.227C30.235 29.12 30.235 29.12 30.3421 29.0129C30.4491 29.0129 30.5562 29.0129 30.6632 29.0129C30.7703 29.0129 30.8773 29.12 30.8773 29.12L34.5173 32.9741V29.12H35.5879V34.1517Z" fill="#6D3078"/>
<path d="M42.1185 34.58H37.622C37.515 34.58 37.515 34.58 37.4079 34.58C37.3009 34.4729 37.3009 34.4729 37.1938 34.4729C37.1938 34.3658 37.1938 34.3658 37.0867 34.2588C37.0867 34.2588 37.0867 34.1517 37.0867 34.0447V29.12H38.0503V33.6164H42.1185V34.58Z" fill="#6D3078"/>
<path d="M48.0067 31.2611C48.0067 31.1541 47.8997 30.9399 47.8997 30.7258C47.7926 30.6188 47.6856 30.5117 47.5785 30.4047C47.4714 30.1905 47.3644 30.1905 47.1503 30.0835C47.0432 29.9764 46.8291 29.9764 46.722 29.9764H45.3303C45.1161 29.9764 44.902 29.9764 44.795 30.0835C44.5809 30.1905 44.4738 30.1905 44.3667 30.4047C44.2597 30.5117 44.1526 30.6188 44.1526 30.7258C44.0456 30.9399 44.0456 31.1541 44.0456 31.2611V32.3317C44.0456 32.5458 44.0456 32.7599 44.1526 32.867C44.1526 33.0811 44.2597 33.1882 44.3667 33.2952C44.4738 33.4023 44.5809 33.5094 44.795 33.6164C44.902 33.6164 45.1161 33.6164 45.3303 33.6164H46.615C46.8291 33.6164 47.0432 33.6164 47.1503 33.6164C47.3644 33.5094 47.4714 33.4023 47.5785 33.2952C47.6856 33.1882 47.7926 33.0811 47.8997 32.867C47.8997 32.7599 48.0067 32.5458 48.0067 32.3317V31.2611ZM48.9703 32.3317C48.9703 32.6529 48.8632 32.9741 48.7561 33.2952C48.6491 33.5094 48.542 33.8305 48.3279 34.0447C48.1138 34.2588 47.8997 34.3658 47.5785 34.4729C47.2573 34.5799 47.0432 34.687 46.722 34.687H45.3303C45.0091 34.687 44.6879 34.5799 44.3667 34.4729C44.1526 34.3658 43.8314 34.2588 43.7244 34.0447C43.5103 33.8305 43.2962 33.5094 43.1891 33.2952C43.082 32.9741 42.975 32.6529 42.975 32.3317V31.2611C42.975 30.9399 43.082 30.6188 43.1891 30.4047C43.2962 30.0835 43.5103 29.8694 43.7244 29.6552C43.8314 29.4411 44.1526 29.3341 44.3667 29.12C44.6879 29.0129 45.0091 29.0129 45.3303 29.0129H46.722C47.0432 29.0129 47.2573 29.0129 47.5785 29.12C47.8997 29.3341 48.1138 29.4411 48.3279 29.6552C48.542 29.8694 48.6491 30.0835 48.7561 30.4047C48.8632 30.6188 48.9703 30.9399 48.9703 31.2611V32.3317Z" fill="#6D3078"/>
<path d="M55.2867 34.58H51.6467C51.5397 34.58 51.4326 34.58 51.3255 34.58C51.2185 34.4729 51.2185 34.4729 51.1114 34.4729C51.0044 34.3658 50.8973 34.3658 50.7903 34.2588C50.6832 34.1517 50.5761 34.1517 50.4691 34.0447C50.4691 33.9376 50.362 33.8305 50.362 33.6164C50.255 33.5094 50.255 33.4023 50.255 33.1882V30.5117C50.255 30.4047 50.255 30.2976 50.255 30.1906C50.362 30.0835 50.362 29.9764 50.362 29.8694C50.4691 29.7623 50.4691 29.6553 50.5761 29.5482C50.6832 29.4411 50.7903 29.4411 50.8973 29.3341C51.0044 29.227 51.1114 29.227 51.2185 29.12C51.3255 29.12 51.5397 29.12 51.6467 29.12H55.2867V30.0835H51.6467C51.5397 30.0835 51.4326 30.0835 51.3255 30.1906C51.3255 30.2976 51.2185 30.2976 51.2185 30.5117V33.1882C51.2185 33.2953 51.3255 33.4023 51.3255 33.5094C51.4326 33.5094 51.5397 33.6164 51.6467 33.6164H55.2867V34.58Z" fill="#6D3078"/>
<path d="M62.3526 34.58H60.9608L58.7126 32.3317H57.9632V31.3682H58.7126L60.9608 29.12H62.3526L59.5691 31.7964L62.3526 34.58ZM57.642 34.58H56.5714V29.12H57.642V34.58Z" fill="#6D3078"/>
<path d="M64.3867 34.58H63.4232V29.12H64.3867V34.58Z" fill="#6D3078"/>
<path d="M71.4526 34.1517C71.4526 34.2588 71.4526 34.2588 71.4526 34.3658C71.3455 34.3658 71.3455 34.4729 71.3455 34.4729C71.2385 34.5799 71.2385 34.5799 71.1314 34.5799C71.1314 34.687 71.0243 34.687 70.9173 34.687C70.9173 34.687 70.8102 34.687 70.8102 34.5799C70.7032 34.5799 70.7032 34.5799 70.5961 34.4729L66.9561 30.7258V34.5799H65.9926V29.5482C65.9926 29.4411 65.9926 29.3341 66.0996 29.227C66.0996 29.12 66.2067 29.12 66.3138 29.0129C66.3138 29.0129 66.4208 29.0129 66.5279 29.0129C66.6349 29.0129 66.742 29.12 66.8491 29.12L70.489 32.9741V29.12H71.4526V34.1517Z" fill="#6D3078"/>
<path d="M78.4114 34.0447C78.4114 34.1517 78.4114 34.2588 78.4114 34.2588C78.4114 34.3658 78.3043 34.3658 78.3043 34.4729C78.3043 34.4729 78.1973 34.4729 78.0902 34.58H77.9832H74.3432C74.2361 34.58 74.129 34.58 74.022 34.58C73.9149 34.4729 73.8079 34.4729 73.7008 34.4729C73.5938 34.3658 73.4867 34.3658 73.3796 34.2588C73.3796 34.1517 73.2726 34.1517 73.1655 34.0447C73.0585 33.9376 73.0585 33.8305 72.9514 33.6164C72.9514 33.5094 72.9514 33.4023 72.9514 33.1882V30.5117C72.9514 30.4047 72.9514 30.2976 72.9514 30.1906C72.9514 30.0835 73.0585 29.9764 73.0585 29.8694C73.1655 29.7623 73.1655 29.6553 73.2726 29.5482C73.3796 29.4411 73.3796 29.4411 73.4867 29.3341C73.5938 29.227 73.7008 29.227 73.9149 29.12C74.022 29.12 74.129 29.12 74.3432 29.12H78.4114V30.0835H74.3432C74.2361 30.0835 74.129 30.0835 74.022 30.1906C74.022 30.2976 73.9149 30.2976 73.9149 30.5117V33.1882C73.9149 33.2953 74.022 33.4023 74.022 33.5094C74.129 33.5094 74.2361 33.6164 74.3432 33.6164H77.4479V32.3317H74.7714V31.3682H77.9832H78.0902C78.1973 31.3682 78.3043 31.4753 78.3043 31.4753L78.4114 31.5823C78.4114 31.6894 78.4114 31.7964 78.4114 31.7964V34.0447Z" fill="#6D3078"/>
<path d="M88.0467 30.94C88.0467 31.1541 87.9396 31.3682 87.9396 31.5823C87.8326 31.6894 87.8326 31.9035 87.7255 32.0105C87.6184 32.1176 87.5114 32.2247 87.4043 32.3317C87.1902 32.4388 87.0831 32.5458 86.9761 32.5458C86.869 32.6529 86.6549 32.6529 86.5479 32.76C86.4408 32.76 86.2267 32.76 86.1196 32.76H85.7984V34.58H84.7279V32.76H84.2996C84.1926 32.76 84.0855 32.76 83.9784 32.76C83.7643 32.6529 83.6573 32.6529 83.5502 32.5458C83.4431 32.5458 83.229 32.4388 83.122 32.3317C83.0149 32.2247 82.9079 32.1176 82.8008 32.0105C82.6937 31.9035 82.6937 31.6894 82.5867 31.4753C82.4796 31.3682 82.4796 31.1541 82.4796 30.94V29.12H83.4431V30.94C83.4431 31.047 83.5502 31.1541 83.5502 31.2611C83.5502 31.3682 83.6573 31.4753 83.7643 31.5823C83.7643 31.5823 83.8714 31.6894 83.9784 31.6894C84.0855 31.7964 84.1926 31.7964 84.4067 31.7964H86.1196C86.2267 31.7964 86.3337 31.6894 86.4408 31.6894C86.5479 31.6894 86.6549 31.6894 86.762 31.5823C86.762 31.4753 86.869 31.4753 86.869 31.3682C86.9761 31.2611 86.9761 31.047 86.9761 30.94V29.12H88.0467V30.94Z" fill="#F37435"/>
<path d="M94.042 31.2611C94.042 31.1541 94.042 30.9399 93.9349 30.7258C93.9349 30.6188 93.8278 30.5117 93.7208 30.4047C93.6137 30.1905 93.5067 30.1905 93.2925 30.0835C93.1855 29.9764 92.9714 29.9764 92.7573 29.9764H91.4725C91.2584 29.9764 91.0443 29.9764 90.9373 30.0835C90.7231 30.1905 90.6161 30.1905 90.509 30.4047C90.402 30.5117 90.2949 30.6188 90.1878 30.7258C90.1878 30.9399 90.0808 31.1541 90.0808 31.2611V32.3317C90.0808 32.5458 90.1878 32.7599 90.1878 32.867C90.2949 33.0811 90.402 33.1882 90.509 33.2952C90.6161 33.4023 90.7231 33.5094 90.9373 33.6164C91.0443 33.6164 91.2584 33.6164 91.4725 33.6164H92.7573C92.9714 33.6164 93.1855 33.6164 93.2925 33.6164C93.5067 33.5094 93.6137 33.4023 93.7208 33.2952C93.8278 33.1882 93.9349 33.0811 93.9349 32.867C94.042 32.7599 94.042 32.5458 94.042 32.3317V31.2611ZM95.1125 32.3317C95.1125 32.6529 95.0055 32.9741 94.8984 33.2952C94.7914 33.5094 94.5772 33.8305 94.3631 34.0447C94.2561 34.2588 93.9349 34.3658 93.7208 34.4729C93.3996 34.5799 93.0784 34.687 92.7573 34.687H91.4725C91.0443 34.687 90.8302 34.5799 90.509 34.4729C90.1878 34.3658 89.9737 34.2588 89.7596 34.0447C89.5455 33.8305 89.4384 33.5094 89.3314 33.2952C89.2243 32.9741 89.1173 32.6529 89.1173 32.3317V31.2611C89.1173 30.9399 89.2243 30.6188 89.3314 30.4047C89.4384 30.0835 89.5455 29.8694 89.7596 29.6552C89.9737 29.4411 90.1878 29.3341 90.509 29.12C90.8302 29.0129 91.0443 29.0129 91.4725 29.0129H92.7573C93.0784 29.0129 93.3996 29.0129 93.7208 29.12C93.9349 29.3341 94.2561 29.4411 94.3631 29.6552C94.5772 29.8694 94.7914 30.0835 94.8984 30.4047C95.0055 30.6188 95.1125 30.9399 95.1125 31.2611V32.3317Z" fill="#F37435"/>
<path d="M101.857 34.0447C101.857 34.1517 101.857 34.2588 101.75 34.2588C101.75 34.3658 101.75 34.3658 101.643 34.4729C101.643 34.4729 101.643 34.4729 101.536 34.58C101.429 34.58 101.429 34.58 101.322 34.58H99.0737C98.8596 34.58 98.6455 34.58 98.4314 34.4729C98.2172 34.4729 98.0031 34.3658 97.789 34.2588C97.5749 34.1517 97.3608 34.0447 97.2537 33.9376C97.0396 33.8305 96.9325 33.6164 96.7184 33.4023C96.6114 33.1882 96.5043 32.9741 96.3973 32.6529C96.3973 32.4388 96.2902 32.1176 96.2902 31.7964V29.12H97.3608V31.7964C97.3608 32.1176 97.3608 32.3317 97.4678 32.5458C97.5749 32.76 97.5749 32.867 97.789 33.0811C97.8961 33.1882 98.0031 33.2953 98.1102 33.2953C98.3243 33.4023 98.4314 33.5094 98.5384 33.5094C98.6455 33.5094 98.7525 33.5094 98.8596 33.6164C98.9667 33.6164 99.0737 33.6164 99.0737 33.6164H100.787V29.12H101.857V34.0447Z" fill="#F37435"/>
<path fill-rule="evenodd" clip-rule="evenodd" d="M20.8138 17.8788H1.86445V6.95882H20.8138V17.8788Z" fill="#6D3078"/>
<path fill-rule="evenodd" clip-rule="evenodd" d="M5.82561 13.1682H8.28796L7.00326 10.1706L5.82561 13.1682Z" fill="#F37435"/>
<path fill-rule="evenodd" clip-rule="evenodd" d="M11.7138 0.963531C5.29032 0.963531 0.0444489 6.20941 0.0444489 12.6329C0.0444489 19.1635 5.29032 24.3023 11.7138 24.3023C18.1374 24.3023 23.3832 19.1635 23.3832 12.6329C23.3832 6.20941 18.1374 0.963531 11.7138 0.963531ZM10.5362 16.9153C10.0009 16.9153 9.67973 16.7012 9.57267 16.2729L8.93032 14.8812H5.07621L4.43385 16.2729C4.3268 16.7012 3.89856 16.9153 3.57738 16.9153C3.04209 16.9153 2.61386 16.487 2.61386 16.0588C2.61386 15.8447 2.72092 15.7376 2.72092 15.6306L5.82562 8.67176C6.03973 8.13646 6.46797 7.81529 7.00326 7.81529H7.11032C7.64561 7.81529 7.96679 8.13646 8.18091 8.67176L11.2856 15.6306C11.3927 15.7376 11.3927 15.8447 11.3927 15.9517C11.3927 16.487 10.9644 16.9153 10.5362 16.9153ZM19.8503 12.9541C19.8503 15.6306 18.3515 17.0223 15.9962 17.0223C13.5338 17.0223 12.1421 15.6306 12.1421 13.0612V8.88587C12.1421 8.35058 12.5703 7.92234 13.1056 7.92234C13.6409 7.92234 14.0691 8.35058 14.0691 8.88587V12.9541C14.0691 14.4529 14.8185 15.2023 15.9962 15.2023C17.1738 15.2023 17.9232 14.4529 17.9232 13.0612V8.88587C17.9232 8.35058 18.3515 7.92234 18.8868 7.92234C19.4221 7.92234 19.8503 8.35058 19.8503 8.88587V12.9541Z" fill="#F37435"/>
</g>
<defs>
<clipPath id="clip0_1256_10">
<rect width="139.908" height="34.687" fill="white"/>
</clipPath>
</defs>
</svg>
